<mxfile modified="2019-11-12T14:04:04.612Z" host="www.draw.io" agent="Mozilla/5.0 (Windows NT 10.0; Win64; x64) AppleWebKit/537.36 (KHTML, like Gecko) Chrome/78.0.3904.97 Safari/537.36" etag="6I1O8I-QoHWGqZKJwX9Z" version="12.2.4" type="github" pages="1">
  <diagram name="Page-1" id="97a40813-6b03-0c74-37c1-0168de264b11">
    <mxGraphModel dx="1837" dy="491" grid="1" gridSize="10" guides="1" tooltips="1" connect="1" arrows="1" fold="1" page="1" pageScale="1" pageWidth="1000" pageHeight="300" background="#ffffff" math="0" shadow="0">
      <root>
        <mxCell id="0"/>
        <mxCell id="1" parent="0"/>
        <mxCell id="RspvgsMFYVnu4atirAyJ-1" value="GitHub" style="text;html=1;strokeColor=none;fillColor=none;align=center;verticalAlign=middle;whiteSpace=wrap;rounded=0;" vertex="1" parent="1">
          <mxGeometry x="30" y="102" width="40" height="20" as="geometry"/>
        </mxCell>
        <mxCell id="RspvgsMFYVnu4atirAyJ-2" value="myrepo.git" style="shape=cylinder;whiteSpace=wrap;html=1;boundedLbl=1;backgroundOutline=1;" vertex="1" parent="1">
          <mxGeometry x="30" y="142" width="90" height="50" as="geometry"/>
        </mxCell>
        <mxCell id="RspvgsMFYVnu4atirAyJ-3" value="NodeJS" style="text;html=1;strokeColor=none;fillColor=none;align=center;verticalAlign=middle;whiteSpace=wrap;rounded=0;" vertex="1" parent="1">
          <mxGeometry x="300" y="80" width="40" height="20" as="geometry"/>
        </mxCell>
        <mxCell id="RspvgsMFYVnu4atirAyJ-4" value="" style="shape=cylinder;whiteSpace=wrap;html=1;boundedLbl=1;backgroundOutline=1;" vertex="1" parent="1">
          <mxGeometry x="320" y="130" width="105" height="88" as="geometry"/>
        </mxCell>
        <mxCell id="RspvgsMFYVnu4atirAyJ-8" value="" style="endArrow=classic;html=1;entryX=0;entryY=0.5;entryDx=0;entryDy=0;exitX=1;exitY=0.5;exitDx=0;exitDy=0;" edge="1" parent="1" source="RspvgsMFYVnu4atirAyJ-2">
          <mxGeometry width="50" height="50" relative="1" as="geometry">
            <mxPoint x="30" y="262" as="sourcePoint"/>
            <mxPoint x="265" y="167" as="targetPoint"/>
          </mxGeometry>
        </mxCell>
        <mxCell id="RspvgsMFYVnu4atirAyJ-9" value="clone" style="text;html=1;strokeColor=none;fillColor=none;align=center;verticalAlign=middle;whiteSpace=wrap;rounded=0;" vertex="1" parent="1">
          <mxGeometry x="170" y="147" width="40" height="20" as="geometry"/>
        </mxCell>
        <mxCell id="RspvgsMFYVnu4atirAyJ-10" value="Actor" style="shape=umlActor;verticalLabelPosition=bottom;labelBackgroundColor=#ffffff;verticalAlign=top;html=1;outlineConnect=0;" vertex="1" parent="1">
          <mxGeometry x="130" y="197" width="20" height="40" as="geometry"/>
        </mxCell>
        <mxCell id="RspvgsMFYVnu4atirAyJ-11" value="LivelySync" style="rounded=0;whiteSpace=wrap;html=1;" vertex="1" parent="1">
          <mxGeometry x="160" y="182" width="80" height="30" as="geometry"/>
        </mxCell>
        <mxCell id="RspvgsMFYVnu4atirAyJ-13" value="(A) Clone Repository into working Directory" style="text;html=1;strokeColor=none;fillColor=none;align=center;verticalAlign=middle;whiteSpace=wrap;rounded=0;direction=south;fontSize=16;fontColor=#004C99;" vertex="1" parent="1">
          <mxGeometry x="-0.5" width="310" height="40" as="geometry"/>
        </mxCell>
        <mxCell id="RspvgsMFYVnu4atirAyJ-18" value="lively4/myrepo/" style="text;html=1;strokeColor=none;fillColor=none;align=center;verticalAlign=middle;whiteSpace=wrap;rounded=0;" vertex="1" parent="1">
          <mxGeometry x="317.5" y="182" width="110" height="20" as="geometry"/>
        </mxCell>
        <mxCell id="RspvgsMFYVnu4atirAyJ-19" value="FileSystem" style="text;html=1;strokeColor=none;fillColor=none;align=center;verticalAlign=middle;whiteSpace=wrap;rounded=0;" vertex="1" parent="1">
          <mxGeometry x="310" y="164" width="90" height="20" as="geometry"/>
        </mxCell>
      </root>
    </mxGraphModel>
  </diagram>
</mxfile>
